<svg width="191" height="122" viewBox="0 0 191 122" fill="none" xmlns="http://www.w3.org/2000/svg">
<g clip-path="url(#clip0_2_57)">
<path d="M13.1481 89.6265H11.4236L9.7038 98.1835H11.3788C15.3485 98.1835 17.1201 96.3476 17.1201 92.9042C17.1201 90.733 15.7796 89.6265 13.1481 89.6265ZM10.9453 102.733H8.79209L6.69301 113.451H0L5.63758 85.0765H14.4839C19.695 85.0765 24.1924 86.8663 24.1924 92.3929C24.1924 99.5415 18.8375 102.733 10.9453 102.733Z" fill="#176FC1"/>
<path d="M35.018 98.3911C32.5467 98.3911 30.1202 102.052 30.1202 106.085C30.1202 108.162 30.6738 109.381 31.814 109.381C33.7812 109.381 36.5752 105.391 37.626 100.181L37.8097 99.286C37.3974 98.9968 36.7095 98.3911 35.018 98.3911ZM41.1503 113.451H34.9733L35.5245 110.599C34.4762 112.066 32.9142 113.862 29.3922 113.862C26.4592 113.862 23.6251 111.821 23.6251 106.697C23.6251 99.328 28.5229 93.9104 34.1911 93.9104C37.3974 93.9104 38.5848 95.0903 39.0018 95.4592L39.2279 94.3212H44.9503L41.1503 113.451Z" fill="#176FC1"/>
<path d="M58.395 112.274C55.2405 117.886 52.086 121.183 44.7616 122L44.0784 118.012C46.8701 117.236 49.7042 115.979 51.2638 113.164L51.8975 112.024L48.1517 94.3212H54.6963L56.3407 104.739L61.7403 94.3212H68.5559L58.395 112.274Z" fill="#176FC1"/>
<path d="M98.4838 113.451H92.3067L94.8228 100.833C95.0018 100.022 94.9594 99.2043 93.9111 99.2043C91.9863 99.2043 88.5515 103.276 87.595 108.162L86.5443 113.451H80.3578L82.8833 100.833C83.06 100.022 83.0223 99.2043 81.9645 99.2043C80.0421 99.2043 76.6143 103.276 75.6461 108.162L74.5977 113.451H68.423L72.2183 94.3212H78.393L77.526 98.7998C78.8995 96.8005 81.0504 93.9104 84.7538 93.9104C88.0944 93.9104 89.5621 95.8259 89.3289 98.8816C90.5186 97.1253 92.7638 93.9104 96.6981 93.9104C100.498 93.9104 101.869 96.396 101.089 100.3L98.4838 113.451Z" fill="#176FC1"/>
<path d="M116.466 97.8192C114.546 97.8192 112.713 99.98 111.98 103.073C116.053 102.585 118.525 101.732 118.525 99.609C118.525 98.3914 117.698 97.8192 116.466 97.8192ZM111.66 106.211C111.754 108.319 112.762 109.382 114.819 109.382C117.198 109.382 119.481 108.281 121.18 107.349L122.874 110.928C121.453 111.865 118.388 113.862 113.952 113.862C109.146 113.862 105.304 111.788 105.304 106.005C105.304 99.2863 109.464 93.9106 116.791 93.9106C122.28 93.9106 124.657 96.0315 124.657 99.2863C124.657 104.578 119.806 105.842 111.66 106.211Z" fill="#176FC1"/>
<path d="M145.155 113.451H138.978L141.494 100.833C141.68 100.022 141.633 99.2043 140.582 99.2043C138.66 99.2043 135.225 103.276 134.266 108.162L133.217 113.451H127.036L130.833 94.3212H137.013L136.146 98.7998C137.517 96.8005 139.665 93.9104 143.371 93.9104C147.169 93.9104 148.54 96.396 147.77 100.3L145.155 113.451Z" fill="#176FC1"/>
<path d="M164.377 98.3911H161.175L159.302 107.833C159.109 108.65 159.432 109.052 160.12 109.052C160.76 109.052 161.267 108.895 161.863 108.65L162.499 112.433C161.583 112.963 159.844 113.862 157.373 113.862C154.173 113.862 152.3 112.066 153.071 108.204L154.998 98.3911H152.708L153.525 94.3212H155.818L157.097 90.1694L163.05 89.0272L161.992 94.3212H165.199L164.377 98.3911Z" fill="#176FC1"/>
<path d="M181.625 100.142C180.301 99.3269 178.192 98.4341 176.552 98.4341C175.266 98.4341 174.394 98.8386 174.394 99.7754C174.394 100.628 175.36 101.001 176.642 101.483L177.829 101.932C180.025 102.745 182.454 104.047 182.454 107.467C182.454 111.537 180.025 113.861 174.533 113.861C170.053 113.861 167.438 112.107 165.796 111.053L168.217 107.268C169.822 108.32 172.335 109.338 173.987 109.338C175.408 109.338 175.994 108.894 175.994 107.957C175.994 107.02 174.991 106.61 173.711 106.163L172.474 105.721C170.284 104.946 167.944 103.642 167.944 100.26C167.944 95.8668 171.749 93.9114 176.501 93.9114C180.345 93.9114 182.73 95.6237 183.823 96.3509L181.625 100.142Z" fill="#176FC1"/>
<path d="M98.5505 61.6292H85.2092L83.9135 68.2267H94.2463L93.2875 73.1183H82.9617L80.5682 85.1144H73.8705L79.5198 56.7398H99.5517L98.5505 61.6292Z" fill="#176FC1"/>
<path d="M106.982 70.0513C104.511 70.0513 102.085 73.7168 102.085 77.7449C102.085 79.8239 102.633 81.0436 103.778 81.0436C105.746 81.0436 108.54 77.0575 109.586 71.8453L109.774 70.9504C109.364 70.6633 108.679 70.0513 106.982 70.0513ZM113.11 85.1136H106.933L107.484 82.2634C106.433 83.7304 104.879 85.5223 101.352 85.5223C98.4235 85.5223 95.5894 83.4852 95.5894 78.361C95.5894 70.9902 100.487 65.5747 106.153 65.5747C109.364 65.5747 110.549 66.7568 110.964 67.1214L111.192 65.9834H116.912L113.11 85.1136Z" fill="#176FC1"/>
<path d="M134.033 71.8042C132.702 70.989 130.598 70.092 128.952 70.092C127.67 70.092 126.798 70.5027 126.798 71.4354C126.798 72.2904 127.764 72.6551 129.039 73.1455L130.229 73.5961C132.427 74.4093 134.853 75.7065 134.853 79.1289C134.853 83.2031 132.427 85.521 126.937 85.521C122.452 85.521 119.849 83.7711 118.195 82.7169L120.626 78.9277C122.221 79.984 124.742 81.0025 126.389 81.0025C127.8 81.0025 128.403 80.5561 128.403 79.6193C128.403 78.6825 127.395 78.2759 126.113 77.8254L124.878 77.3811C122.685 76.6056 120.348 75.3062 120.348 71.9258C120.348 67.5309 124.148 65.5756 128.905 65.5756C132.745 65.5756 135.126 67.2836 136.227 68.013L134.033 71.8042Z" fill="#176FC1"/>
<path d="M151.189 70.0513H147.988L146.108 79.5011C145.929 80.3122 146.245 80.7209 146.93 80.7209C147.576 80.7209 148.077 80.5553 148.671 80.3122L149.307 84.0951C148.393 84.6274 146.654 85.5223 144.188 85.5223C140.989 85.5223 139.106 83.7304 139.888 79.8658L141.811 70.0513H139.516L140.343 65.9834H142.631L143.912 61.8317L149.861 60.6895L148.805 65.9834H152.012L151.189 70.0513Z" fill="#176FC1"/>
<path d="M164.138 69.4823C162.217 69.4823 160.382 71.6389 159.657 74.7301C163.728 74.2439 166.197 73.3909 166.197 71.2742C166.197 70.0503 165.377 69.4823 164.138 69.4823ZM159.332 77.8675C159.426 79.9842 160.432 81.0426 162.493 81.0426C164.875 81.0426 167.158 79.9444 168.854 79.0097L170.545 82.5893C169.125 83.5261 166.058 85.5212 161.621 85.5212C156.818 85.5212 152.973 83.4464 152.973 77.6684C152.973 70.9493 157.136 65.5758 164.465 65.5758C169.949 65.5758 172.327 67.6925 172.327 70.9493C172.327 76.2412 167.478 77.5028 159.332 77.8675Z" fill="#176FC1"/>
<path d="M189.81 71.5186C186.698 71.5186 183.124 73.8784 181.939 79.8241L180.886 85.1138H174.709L178.509 65.9815H184.547L183.772 70.0117C185.183 67.1636 186.835 65.575 191 65.575L189.81 71.5186Z" fill="#176FC1"/>
<path d="M96.5353 39.46V39.5564C96.5258 40.9228 95.3126 42.2935 92.9096 43.3246L12.3767 78.0243C7.53545 80.1137 5.74499 78.412 8.38121 74.2456L23.1171 50.9532C25.2539 47.5539 26.4766 43.6348 26.4766 39.46C26.4766 35.2831 25.2539 31.3619 23.1171 27.9668L8.38121 4.6744C5.74499 0.505913 7.53545 -1.19585 12.3767 0.893631L92.9096 35.5912C95.3126 36.6328 96.5258 37.9971 96.5353 39.3636V39.46Z" fill="#176FC1"/>
</g>
<defs>
<clipPath id="clip0_2_57">
<rect width="191" height="122" fill="white"/>
</clipPath>
</defs>
</svg>
